<?xml version="1.0" encoding="UTF-8"?>
<svg id="Layer_1" data-name="Layer 1" xmlns="http://www.w3.org/2000/svg" viewBox="0 0 161.42 104.33">
  <defs>
    <style>
      .cls-1 {
        fill: #fff;
        stroke-width: 0px;
      }
    </style>
  </defs>
  <path class="cls-1" d="M32,26.28v35.92c0,3.12-.09,5.77-.28,7.95-.19,2.18-.61,4.4-1.27,6.64-1.1,3.77-2.91,6.71-5.43,8.82-2.52,2.1-5.59,3.16-9.21,3.16-3.27,0-5.99-.73-8.17-2.2-2.18-1.47-3.94-3.84-5.28-7.11-.7-1.75-1.27-3.76-1.71-6.03-.44-2.28-.66-4.44-.66-6.5v-6.74c1.43-.09,3.23,0,4.57,0s4.07.06,4.07.06c0,0,.2,4.23.37,6.49.26,3.49.46,4.45.83,5.89.37,1.43,1.28,2.53,2.16,3.56.88,1.03,2.13,1.54,3.75,1.54,4.32,0,6.48-4.51,6.48-13.52V26.28c0-2.81-.07-8.42-.07-8.42h9.84v8.42Z"/>
  <path class="cls-1" d="M74.28,21.53s-.08,0-.12,0l-1.48,15.24,3.95-3.99-7.36,39.14,2.43-27.05-2.89,2.51.2-17.73c-.07,0-.15-.07-.22-.2-.87-1.69-1.51-2.98-1.92-3.87-2.76-4.71-5.99-7.07-9.69-7.07-5.25,0-9.49,3.36-12.71,10.08-3.07,6.45-4.61,14.61-4.61,24.49,0,8.76,1.52,16.44,4.57,23.02,3.22,6.9,7.18,10.34,11.87,10.34,1.91,0,3.82-.89,5.74-2.67,1.23-1.11,2.57-2.74,3.99-4.87,1.16-1.73,1.82-2.6,1.96-2.6.22,0,.45,1.56.69,4.67l.42,4.23s8.31.12,8.98.12l.05-4.04.05-55.7c.07-.62.11-3.87.11-4.05h-4.02ZM65.35,66.15c-1.91,4.23-4.28,6.34-7.12,6.34s-5.32-2.07-7.26-6.21c-1.86-3.96-2.8-8.63-2.8-14.01s.93-10.14,2.8-14.15c1.94-4.18,4.36-6.27,7.26-6.27s5.29,2.11,7.15,6.34c1.77,3.91,2.65,8.61,2.65,14.08s-.9,9.92-2.69,13.88Z"/>
  <polygon class="cls-1" points="109.21 104.33 119.22 96.1 95.95 49.21 121.44 8.23 110.68 0 81.39 49.21 109.21 104.33"/>
  <path class="cls-1" d="M107.67,62.66v-20.33h22.43l31.32-23.82v21.98l-19.87,12.62,19.87,12.57v20.76l-31.32-23.77h-22.43Z"/>
</svg>